/* XPM */
static char *magick[] = {
/* columns rows colors chars-per-pixel */
"30 32 257 2",
"   c Gray0",
".  c #15130f",
"X  c #1d1915",
"o  c #1c1a15",
"O  c #201913",
"+  c #27251e",
"@  c #282c26",
"#  c #283926",
"$  c #342c23",
"%  c #34322e",
"&  c #3b3a35",
"*  c #383935",
"=  c #1b5f1a",
"-  c #1b4a19",
";  c #107a0f",
":  c #2f412f",
">  c #2e5c2d",
",  c #3f403d",
"<  c #375d2e",
"1  c #3a5a3a",
"2  c #3f7a19",
"3  c #286927",
"4  c #277826",
"5  c #326b2f",
"6  c #3c6739",
"7  c #317b2b",
"8  c #387636",
"9  c #472d1c",
"0  c #492f20",
"q  c #49382b",
"w  c #433f38",
"e  c #513c2b",
"r  c #623b24",
"t  c #47423d",
"y  c #5d422e",
"u  c #544834",
"i  c #496c23",
"p  c #694329",
"a  c #654c3a",
"s  c #6f553f",
"d  c #7d4b2c",
"f  c #77492c",
"g  c #7b4f34",
"h  c #7f5e2e",
"j  c #7e5134",
"k  c #7a543b",
"l  c #454641",
"z  c #4c4c49",
"x  c #494945",
"c  c #4d544b",
"v  c #56524c",
"b  c #565a55",
"n  c #595b56",
"m  c #544c47",
"M  c #4a6e4a",
"N  c #5d625c",
"B  c #556c53",
"V  c #597356",
"C  c #644d40",
"Z  c #685648",
"A  c #615d54",
"S  c #795942",
"D  c #6c675c",
"F  c #7d624f",
"G  c #7c6350",
"H  c #666a65",
"J  c #6c716b",
"K  c #746f65",
"L  c #71746c",
"P  c #787366",
"I  c #767a72",
"U  c #7a7d74",
"Y  c #737770",
"T  c #0d8b0e",
"R  c #1b8a1c",
"E  c #1a9b0f",
"W  c #169813",
"Q  c #1f9320",
"!  c #0fab0f",
"~  c #0abb0a",
"^  c #14ad0e",
"/  c #17a818",
"(  c #13b113",
")  c #21871e",
"_  c #288828",
"`  c #2a9c29",
"'  c #398c38",
"]  c #399b39",
"[  c #2fa214",
"{  c #27a928",
"}  c #34a531",
"|  c #33b32f",
" . c #38ba34",
".. c #2db72a",
"X. c #1ec21c",
"o. c #4e8920",
"O. c #42a31e",
"+. c #42a23f",
"@. c #4cb029",
"#. c #44bc3e",
"$. c #4a8848",
"%. c #51874d",
"&. c #548451",
"*. c #579a54",
"=. c #54a64c",
"-. c #6a9d5f",
";. c #6e9668",
":. c #7b8077",
">. c #61b052",
",. c #6fa765",
"<. c #7ead74",
"1. c #43c23d",
"2. c #51c94c",
"3. c #834d2d",
"4. c #834f30",
"5. c #8b522e",
"6. c #87512e",
"7. c #845233",
"8. c #83563a",
"9. c #83593e",
"0. c #8c5532",
"q. c #8c5b3c",
"w. c #90542e",
"e. c #965934",
"r. c #9b5c34",
"t. c #945a35",
"y. c #9e623c",
"u. c #97603d",
"i. c #997334",
"p. c #a15e34",
"a. c #a56136",
"s. c #a4643c",
"d. c #aa663b",
"f. c #ad693e",
"g. c #b16739",
"h. c #b66b3c",
"j. c #bd6f3e",
"k. c #b27d3c",
"l. c #845c42",
"z. c #8a6449",
"x. c #896c56",
"c. c #986747",
"v. c #966e53",
"b. c #9a7155",
"n. c #9b7258",
"m. c #857261",
"M. c #a36843",
"N. c #ac6c43",
"B. c #a46b47",
"V. c #ad714b",
"C. c #a3714f",
"Z. c #a67859",
"A. c #b26d42",
"S. c #b86f41",
"D. c #b47045",
"F. c #ba7448",
"G. c #b37953",
"H. c #b87c55",
"J. c #c16f3e",
"K. c #c8733f",
"L. c #c47443",
"P. c #ca7642",
"I. c #c87a49",
"U. c #c37e51",
"Y. c #db7f45",
"T. c #d47d47",
"R. c #80972b",
"E. c #968833",
"W. c #82857b",
"Q. c #86897d",
"!. c #9f826a",
"~. c #84a87a",
"^. c #81b378",
"/. c #a59f40",
"(. c #bb865c",
"). c #ab8367",
"_. c #a78770",
"`. c #b68767",
"'. c #b99477",
"]. c #a0a348",
"[. c #c78256",
"{. c #dd8047",
"}. c #db824a",
"|. c #d98956",
" X c #c48b65",
".X c #d38e61",
"XX c #d59265",
"oX c #d49a74",
"OX c #e5854a",
"+X c #e9874a",
"@X c #ec894b",
"#X c #ea8e55",
"$X c #e6925c",
"%X c #f38d4e",
"&X c #f68f50",
"*X c #f69151",
"=X c #f1985f",
"-X c #fa9353",
";X c #fa9758",
":X c #fb9a5c",
">X c #f4965a",
",X c #e69866",
"<X c #f99d62",
"1X c #eaa374",
"2X c #faa269",
"3X c #fba973",
"4X c #f7aa78",
"5X c #8a8d81",
"6X c #8e9684",
"7X c #96998b",
"8X c #9b9c8f",
"9X c #94978a",
"0X c #8ca381",
"qX c #8bb681",
"wX c #99a38d",
"eX c #9ea493",
"rX c #90b786",
"tX c #a5a896",
"yX c #a6ab9a",
"uX c #a8ad9b",
"iX c #a3a695",
"pX c #aeb29e",
"aX c #abafa0",
"sX c #aeb2a2",
"dX c #b1b5a4",
"fX c #b7bca9",
"gX c #b9bbaa",
"hX c #8dc281",
"jX c #97c78b",
"kX c #a2c196",
"lX c #bac3ac",
"zX c #bec3b1",
"xX c #bfc8b3",
"cX c #b4e1a4",
"vX c #daa784",
"bX c #c6a88b",
"nX c #c7b9a4",
"mX c #e1ae88",
"MX c #f2af81",
"NX c #fcb280",
"BX c #f4bc96",
"VX c #eab58c",
"CX c #c2c6b4",
"ZX c #c3c9b6",
"AX c #c6cabb",
"SX c #cacdbd",
"DX c #e2c8ad",
"FX c #e5ccb2",
"GX c #cccdc4",
"HX c #ced1c2",
"JX c #d6dac5",
"KX c #d0d3c2",
"LX c #e6ead4",
"PX c #ecf0d8",
"IX c #f4f5df",
"UX c #f9f9e3",
"YX c None",
/* pixels */
"YXYXvX0.e.Z.,XS.e.J.e.XXF.J.@X@Xq.MXp.P.r `.2X#X0.p.q.BXYXYX",
"YX4X*Xd.B.3X-X%XM.d.XX-X-XY.3.e.Z.<Xd M.A.1X-X-Xd.|. X;X2XYX",
"YXT.a.l.B.:X+Xe.8.N.M.-X-X%X5.8.a w K F.9.L.%X%Xw.C.c.&XL.YX",
"YXG.l.3XS.w.0.c.3X;XP.h.Y.6.a w w W.D mX<Xp.s.0.H.<XP.7.j YX",
"YXF..X;X&Xh.}.H.-X-X-Xp.c.F Z m K 9Xz.<X-XY.I.r.=X*XY.V.4.YX",
"YX[.0.+X%Xh.v.y.Y.-X&Xg.t.x.`.n iXl XX-X%Xp.C.[.0.Y.7.`.I.YX",
"YX;X@X4.g.8.1Xe.r p.h.S F x._.I I e p.P.r.|.<X&XV.L.n.2X%XYX",
"YX-X&XA.Y.s g z.C u q S u v K 7X% p e + e p.Y.P.A.T.[.&X+XYX",
"YX-X&X0.`.bXD A b b b t $ % D n $ * w z c z 9.j Z.H.0.s.d YX",
"YXA.e.'.oXDXW.iX9XU Q.L b & * % & b H L 5X9XL m.2X-XT.[.d.YX",
"YXF.r.XXDXnX5XCXLXSXCXgX5XH z & b U 9XyXCXJXSXlX'.{.s.d b.YX",
"YX4XI.S FXdX8XSXLXUXIXLXCXeXW.J H 9XdXZXzXyXW.H H g ).vX4XYX",
"YX-X@Xx.FXdX8XSXLXUXUXIXKXZXgXuX9XiXCXAXyXQ.N & k A.BX2X2XYX",
"YX{.d.G nX>.W.kX2.cXPXLXhXCXSXGXAXzXAXCXQ.B < p f c.V.#XI.YX",
"YXe.0.!.=.&.n rX` / ^.SXX.=.gXjXGXGXGXCXW.6 [ h @.<XP.g 7.YX",
"YX2Xh.(.} b H ~.' ' _ ~.( / Q.1.,.CXGXCX-.4 E 2 /.-X+Xr.f YX",
"YXs.d ].7 8 ` ;.$.} 8 ] 8 / V  ./ 6XAXxX..# W O.{.{.7.`.$XYX",
"YX:X}.o.= M T 6 } / c { R ( 6 | 4 } sXjX! + T o.q.8.1X;X%XYX",
"YX&XOXi ; n R > ! c Q...c =.3 ..3 { *. .3 * 7 k.[.h.;X*XOXYX",
"YXa.f z.^ 1 _ 3 ! B AX=.I ^.8 { 3 ;.~ ~ * A 8 i.3.u.y.g.p YX",
"YX$XG.H.E.! R 5 _ { sX<.yXlX$.} 3 9X#.T l 6X$.i C.,X*Xq.f.YX",
"YXV.C.<Xd u - 7 3 Q V lXHXAX0XeXI yXkX5 I fX<.4 v v.T.k G.YX",
"YX;Xa.N.e.k c J b N J GXLXJXlXxXAXAXAXtXdXSXJX0XtXuXF 1X:XYX",
"YX*XY.H.P.oXG.N Y J :.aXZXlXlXAXzXlXfXlXZXZXdXeXI v 4X-X&XYX",
"YX%Xw.Z.q.D.s.C H J N J 7XyXuXsX8X7X7XeXiXdXQ.H z a T.Y.w.YX",
"YXs.c.2X:X<XD.M.t b N c N U :.5XL H H Y U iXH x w VXA.z.s.YX",
"YX>XG.;X*X+XN.f.z.& z l * l c n , * % & c U z @  X:XT.d.d YX",
"YXH.q.OXJ.7.b.1XN.j @ % @ + @ @ o o X o @ & @ k h.Y.7. X,XYX",
"YX;XY.q.z.4X<X-Xj.[.0.$ o . . O 0 9 X X X X z.c.t.3.oX:X-XYX",
"YX-XL.y.D.:X-X@X4.H.B.|.0.9 p 8.F.N.p q e x.Z.,X7.M.2X*X+XYX",
"YX,Xj ,X0.>X@X0..X-XN.-Xj.c.<Xr.<XT.l.3XS.).2Xt.,Xr.}.}.v.YX",
"YXYXvX-X+X6.7.(.:X&Xp.a.l.<X-Xg.M.f $X&XOX7.s.u.-X%X3.'.YXYX"
};
