/* XPM */
static char *magick[] = {
/* columns rows colors chars-per-pixel */
"46 48 256 2",
"   c Gray0",
".  c #0b0a08",
"X  c #120e0b",
"o  c #15110e",
"O  c #1c1a15",
"+  c #1e221b",
"@  c #2d1c12",
"#  c #23221c",
"$  c #32251b",
"%  c #262b25",
"&  c #2c322c",
"*  c #322d26",
"=  c #37342c",
"-  c #3c3c3a",
";  c #383935",
":  c #1c4a1c",
">  c #1c541a",
",  c #20451b",
"<  c #254124",
"1  c #2c582e",
"2  c #3b4639",
"3  c #315e2f",
"4  c #355535",
"5  c #324a2d",
"6  c #287218",
"7  c #286926",
"8  c #267625",
"9  c #367635",
"0  c #366a34",
"q  c #492d1c",
"w  c #54331e",
"e  c #4c301f",
"r  c #493425",
"t  c #423e39",
"y  c #593a27",
"u  c #653d24",
"i  c #43491d",
"p  c #48423b",
"a  c #584233",
"s  c #42603f",
"d  c #40703d",
"f  c #6a432a",
"g  c #684b38",
"h  c #6f513d",
"j  c #744629",
"k  c #79492b",
"l  c #764d33",
"z  c #7b5339",
"x  c #6d702f",
"c  c #454342",
"v  c #4b4b49",
"b  c #484945",
"n  c #4a5348",
"m  c #564d45",
"M  c #51524e",
"N  c #5f534c",
"B  c #5a5b55",
"V  c #575b55",
"C  c #5c615b",
"Z  c #586856",
"A  c #5f725f",
"S  c #4d6d4b",
"D  c #685547",
"F  c #785b47",
"G  c #605f58",
"H  c #62645d",
"J  c #6d675c",
"K  c #796455",
"L  c #6b6f57",
"P  c #646a63",
"I  c #676b65",
"U  c #6c736b",
"Y  c #776f62",
"T  c #76766d",
"R  c #777b74",
"E  c #189718",
"W  c #178a15",
"Q  c #09ad0b",
"!  c #0fad10",
"~  c #09ba0a",
"^  c #14aa0d",
"/  c #17a718",
"(  c #17b815",
")  c #17b510",
"_  c #1fa720",
"`  c #1eb520",
"'  c #288b1b",
"]  c #269a27",
"[  c #379939",
"{  c #2c8b2b",
"}  c #23ac18",
"|  c #22b00f",
" . c #37b517",
".. c #24a824",
"X. c #28b826",
"o. c #36b529",
"O. c #03c105",
"+. c #27c523",
"@. c #509d1e",
"#. c #519231",
"$. c #4ea11f",
"%. c #46b01b",
"&. c #4ab530",
"*. c #6ead30",
"=. c #4c8d49",
"-. c #429841",
";. c #5a8c58",
":. c #589556",
">. c #46a643",
",. c #57a24f",
"<. c #53b34c",
"1. c #5ebe56",
"2. c #64895f",
"3. c #7d8478",
"4. c #6f8b69",
"5. c #69b95d",
"6. c #44c23d",
"7. c #64c35c",
"8. c #844e2d",
"9. c #894e2a",
"0. c #8a522e",
"q. c #8c5532",
"w. c #895737",
"e. c #95562f",
"r. c #975b35",
"t. c #9a613d",
"y. c #a35e33",
"u. c #a7643a",
"i. c #b46a3c",
"p. c #bb6d3d",
"a. c #b16637",
"s. c #bb723d",
"d. c #ad743d",
"f. c #845d45",
"g. c #89634a",
"h. c #856955",
"j. c #9b6543",
"k. c #956648",
"l. c #956d53",
"z. c #97745a",
"x. c #997a64",
"c. c #877567",
"v. c #ab6b42",
"b. c #ae734d",
"n. c #a67757",
"m. c #b86d40",
"M. c #b97449",
"N. c #b57c58",
"B. c #a27b61",
"V. c #c16f3d",
"C. c #c5723f",
"Z. c #cd7944",
"A. c #c87746",
"S. c #d37a43",
"D. c #db7e45",
"F. c #c77f51",
"G. c #87902f",
"H. c #81857b",
"J. c #85897e",
"K. c #898779",
"L. c #948a73",
"P. c #87be7a",
"I. c #bb8259",
"U. c #ae9b4b",
"Y. c #ab856b",
"T. c #b58767",
"R. c #b38d70",
"E. c #ba9377",
"W. c #aa8972",
"Q. c #88ca7b",
"!. c #c9855a",
"~. c #da814a",
"^. c #d68957",
"/. c #c08342",
"(. c #c88c65",
"). c #c6936e",
"_. c #c79676",
"`. c #d58e61",
"'. c #d99569",
"]. c #d99c73",
"[. c #d3a95e",
"{. c #dda27a",
"}. c #e48449",
"|. c #ea8649",
" X c #ed894c",
".X c #e48448",
"XX c #e88d53",
"oX c #ec9359",
"OX c #f48d4e",
"+X c #f48f50",
"@X c #f69151",
"#X c #fa9353",
"$X c #fb9a5c",
"%X c #f6975b",
"&X c #e89967",
"*X c #e59f71",
"=X c #f99e64",
"-X c #eca16f",
";X c #e8a376",
":X c #f5a16c",
">X c #fca56c",
",X c #fca166",
"<X c #fbab77",
"1X c #fdb07e",
"2X c #8a8c81",
"3X c #8e9185",
"4X c #95988a",
"5X c #9b9d91",
"6X c #9ba68b",
"7X c #9ea392",
"8X c #96b28b",
"9X c #a79988",
"0X c #b29c8b",
"qX c #a1a38f",
"wX c #a5aa9a",
"eX c #a5a998",
"rX c #abb39d",
"tX c #b4aa96",
"yX c #afb4a2",
"uX c #b1afa0",
"iX c #b2b5a3",
"pX c #b6bca8",
"aX c #b4b7a9",
"sX c #95c888",
"dX c #a8c597",
"fX c #bbc2ad",
"gX c #bfc4b0",
"hX c #bdd5ae",
"jX c #d6a887",
"kX c #ccaf99",
"lX c #cdb5a2",
"zX c #e9ad84",
"xX c #ebba96",
"cX c #f2ad81",
"vX c #fab586",
"bX c #efb086",
"nX c #c6cbba",
"mX c #c9ccbd",
"MX c #c3c9b5",
"NX c #cbd0bc",
"BX c #c2c2ad",
"VX c #fdc29b",
"CX c #ead4bc",
"ZX c #f0caaa",
"AX c #cccdc4",
"SX c #d7d9c8",
"DX c #dfe0d0",
"FX c #dfe2cd",
"GX c #efdfc3",
"HX c #e2e2cd",
"JX c #e4e9d1",
"KX c #edf0d9",
"LX c #f2f4dd",
"PX c #f8e5c6",
"IX c #f9f9e3",
"UX c None",
/* pixels */
"UXUXUXUXg.r.Z.q.z.-XF.u.j  X.Xs.8.!.I.t.S.OXOXOX|.f vXn.A.D.V.f r xX>X$Xs.r.|.p.8.R.UXUXUXUX",
"UXUXUX#X Xj k D 1X$X#X#Xe.8.k y '.,X$X@Xu.9.S.D.i.h.vXXXk i.u k Y.<X#X#XOXf t.j n.<X$XxXUXUX",
"UXUX#X#X}.q.F._.>X#X#XOXe.^.@Xk.>X#X#X#X#XC.r q.r jX%XZ.y g.oXa.'.$X#X#XOXp.A.a.(.$X#X#XCXUX",
"UX;X.XD.q.a q.-X#X#X|.p.q q.q.y oX#X#X#XOX|.k u.g w.y p Y !.A.y F.@XOXOXOXa.y F r.#XOX|.T.UX",
"UXf.j w g bXq.v.OXD.r.e Y.1X>X~.j #X@XOX.Xr.r h t = 2 J.T g.T.*Xq.8..X.XV.y ].<Xr.u.D.q.m UX",
"UXE.=Xu.bX>XOXu.w j q.n.<X$X#X#XM.8.}.p.u y D t t p H.7Xt VX<X#XOXq.t.8.y *X,X#X+Xu F F.x.UX",
"UX*XZ.z.<X#X@XOXp.b.Z.!.$X#X@X#X#Xr.u w.F D D m c Y rXC g.1X#X#XOXe.%X~.k.>X#X#X Xq.*X~.x.UX",
"UXN.u b.#XOX#XOXZ.0.j j.$XOX#X#X#X.Xr.F.K z.x.N V wX3X= '.=X#X#XOXr.8.r.u A.#XOXS.y j.r.h.UX",
"UXxX=Xr.8..X X Xp.g ;Xd.e. XOXOXOXC.u f.K ).W.M 3.wXb a <X#X@X Xi.g _.-XoXu s.Z.k c.<X%Xf.UX",
"UX1X%X+Xu.f a.~.j jX%Xi.e j D..XS.y x.a K _.W.B wXT # l Z.|.S.y.r.:X,X#X Xw.^.r.g vX=X@X!.UX",
"UX<X#X@XOXr.~.8.D &Xk q.Z.f f k e B.*Xc D x.h.R wX; f ^.y w e f ~.OX XOXS.j.=XS.N.>X#XOX&XUX",
"UX1X#X#X@Xw.@Xq.g g F D m c t ; * = y - v J I 9XP + r r * $ * a y p.D.D.e.A.}.r.!.%XOX|.!.UX",
"UXvXOX@X X8.w._.E.K B G M M M M M t * # * D I 3X% * * = - p b b b p t.u.e g.k.k.u u.r.0.N UX",
"UX(.|.|.C.h E.xXGXK.c.T I H I I I G c t % - G ; = = c M V B H P I C v g jXvX>X$X}.w.`.S.x.UX",
"UX;Xu.8.g xXY.PXZXR 4XpXiX5XK.3X4XJ.P B c * & * ; c B I U R J.4XeX7XK.I h.=X#X@X|.q.=XS.x.UX",
"UXT.}..Xk.&X0XPXlXR 5XfXSXHXpXaXpXiX4XR P v c - ; B U J.3X5XwXpXSXSXSXnX5XT.@X}.m.j p.f.F UX",
"UXZXb.e.w l.jXPXtXJ.7XMXSXKXLXFXDXSXpXeX2XI C V b H 3.4XwXpXMXAXmXfXuXwXyXiXI.0.y y h.xXjXUX",
"UXVX>X=Xu.z.lXPXyX3XyXmXJXLXIXIXIXLXSXBXyX4X2XR U P 3XwXfXMXmXpXwX4XR C b c g D jXZXvX<X1XUX",
"UXvX#X#Xe.R.lXGXuX3XyXAXJXIXIXIXIXIXDXAXMXfXyXqX4X2X4XyXMXAXfXwXqXH.H v ; r !.k.VX1X<X>X1XUX",
"UX>XOX X9.R.kXCX6XK.wXnXhXFXIXIXIXKXSXmXmXAXmXMXpXyXwXgXnXmXfX3XR H b t j b.oXq.;X>X=X$X:XUX",
"UX&XZ.a.w x.qXdXX.U 4XfXO.+.sXJXJXJXNX6.fXnXmXAXAXAXnXMXnXmXyXJ.H { 7 j q y g.z w.XX~.V.b.UX",
"UX`.0.8.h c.L.X.;.v 3.pXO.[ ~ 1.MXHXsXO.,.eXnXdXAXAXAXAXmXmXrXH.C E | r.x  .[.,XF.w f q.T UX",
"UXB.^.%Xk.T.-.&.C b 3.rXO.n 9 ~ 3.nX6.O.~ I pX7.5.lXAXAXmXAXyX3.S W ^ u @.$.+X@X@Xu.!..XL.UX",
"UX).=X Xt.I./ A v C H.wX( V =.~ s J.O.] ~ 0 6X7.O.4.pXmXAXmXiX,.E 6 ^ i  .U.@X@X|.q.r.9.c.UX",
"UXF C.V.w.U.^ M S [ ;.4X` C >.~ n :.O.n ! ' 3.1.~ ..3.gXAXAXdX` 8 , ^ ' *..X|.~.y.y ).<XF UX",
"UXE.!.v.j *.E 3 _ Q 0 P ` A ( [ c [ ~ 8 ] / V <./ _ [ 7XgXAX5.O.< O ~ | x k r.f h.cX,X@XN.UX",
"UX1X$X#X8.$.W & C _ > n _ ..( V V X._ > / ! b >./ 1 ~ 2.yXMX+.] # % ^ %.s.n.A.g.<X%X@XOX&XUX",
"UX>X@XOXp.6 Q % P ` : 2 O./ n M 4X( S c =.~ 2 >.( 5 _ ! 3.8XO.7 % t 6 G.u.!.#Xq.=X#X@X@X`.UX",
"UX:X|.C.k x ~ : V _ 5 4 O.7 c 2XmX( A U 8XO.2 [ ~ 5 2.O...( ~ 2 t M 8 G.r.^.|.0.}.@X XV.f.UX",
"UXN.k j f N. .Q 4 ..2 1 ! Q S yXSXo.U 4XfX+.n [ ~ 5 3.<.O.O.E & G P d #.0.f 8.f.k r.e.j c.UX",
"UXjX%Xu.{.r.M.| Q Q 2 0 E E _ 4XAX7.H.aXnX&.A -.O.1 3.8X( O.: - J.H.S ' k N.!.,X%Xu.z &Xx.UX",
"UX*Xr.F vXXX8.d.W ~ & 0 E 3 O.-.yX8X7XAXAX5.3.J.2.2 R gX5.Q + H rX6X2.^ = k.j.#X@Xa.M.u.g.UX",
"UXE.!.k *X$Xe.j r & % 9 E ; { 7 R gXgXDXSXdX6X7XwX3.7XmXfX#.2 3XgXyX6X( 2 M H x.~.f g.{.l.UX",
"UXvX$XZ.l }.r.q g p n I P c V M R AXDXLXDXhXpXfXmXgXmXAXnXuXH.yXAXmXSXsXU 7XNXeXl x.vX,X&XUX",
"UX>X#XOXu N.oXi.{.I.Z I R I P R 4XgXSXSXAXgXgXmXAXAXmXhXnXMXpXnXAXnXAXAXqXwX3XD E.<X$X#X>XUX",
"UX>X#X Xj =X Xq.<X%XF Z R R U P 3.7XfXgXfXpXgXgXfXfXaXpXiXpXpXgXmXpXwX7XJ.U v F <X#X#X@X&XUX",
"UX>XOXS.y k.q.l ^.S.M.m C U U P C R 4XwXwXyXyXpX7X7X5X5X5X7XeXwXfXyX2XR P M ; k.@X X|.C.k.UX",
"UX&XZ.j Y.1X&X!.M.w.f h c V P P V V I H.3X5X4XwX2XJ.H.3.3.2X3X3XqXwXT P v - D Y.f e.k j K UX",
"UXB.t.l vX$X#X$X%Xp.`.D.t ; M P C n b C U R R 4XI P H C P P U R 3.wXC b ; = jX1X%Xg *X%Xx.UX",
"UXcX$Xq.<X#X#X#XOXq.&XS.F K & v V 2 - - b V V R b b - - - - M V P 7Xb & % z.1X%X|.q.%Xi.l.UX",
"UXN.a.y >X#X@X XZ.k u.l.g.u.g % ; 2 ; % % - - b & % + O + + & - b T = + f.<X@XOXC.w t.b.F UX",
"UXY.(.M.q.~.s.8.y g.cX<X=Xk 8.y # % % % + % + % O O O O O O O % & & O F 8.9.Z.A.y E.<X,X:XUX",
"UXvX$X+Xj w.f W.bX<X=X#XOXr.^.M.l # O O O O O O o X X X o O O O O O F (.f f r.e T.<X#X#X:XUX",
"UX>X#X X8.:Xu.;X=X#X@X@X.Xy m.8.g.w.r O . . @ @ l i.A.k $ o o X O h.l.f.=X8.OXk.1X$X#X#X&XUX",
"UXcX#X~.y m.u.^.%X#X#X|.e.f.].M.(.>XXXr.u r w.8.`.!.m.u.y y F g Y.D T.<XZ.l i.k.,X@X@X}.N.UX",
"UXUX Xe.k.^.q.t.$X@X Xu.g :X$XD.b.#XOXZ.u '.$Xk '.=XOXS.g vX>Xa.g zX<XoXu &XD.l %X@XD.v.9XUX",
"UXUXE.l ,X$X@Xk ~.~.u.f ,X$X@XD.r. Xi.y '.,X@XZ.r.@Xm.y ].=X@X.Xz >X|.8.N.=X@Xa.k A.j.9XUXUX",
"UXUXUXCX&X#XOXS.u q.y ;X$X#X@X|.u e.y '.,X#X#X}.u k.l r. XOXOX Xu 8.q.u ^.OXOXOXy.D UXUXUXUX"
};
