/* XPM */
static char *magick[] = {
/* columns rows colors chars-per-pixel */
"15 16 169 2",
"   c Gray0",
".  c #3a2a1e",
"X  c #2b2b27",
"o  c #30342f",
"O  c #3c3c37",
"+  c #3f423d",
"@  c #3a5238",
"#  c #256d23",
"$  c #247425",
"%  c #2e782c",
"&  c #347133",
"*  c #422d1e",
"=  c #45362b",
"-  c #483121",
";  c #413f3a",
":  c #483f34",
">  c #4e4f3a",
",  c #5d4e3f",
"<  c #5d7325",
"1  c #6e4c36",
"2  c #784d2f",
"3  c #754e36",
"4  c #7f5033",
"5  c #7b553b",
"6  c #6f7a34",
"7  c #4d4b44",
"8  c #4b4f49",
"9  c #5f554a",
"0  c #5a5c57",
"q  c #5a5e58",
"w  c #5f625c",
"e  c #6f594a",
"r  c #766354",
"t  c #736759",
"y  c #7d6451",
"u  c #666962",
"i  c #6e7068",
"p  c #71736b",
"a  c #7c7d70",
"s  c #1f951e",
"d  c #3c9a1b",
"f  c #238823",
"g  c #2f862e",
"h  c #2a8e2a",
"j  c #2c972b",
"k  c #388434",
"l  c #3a8439",
"z  c #3a8939",
"x  c #349f33",
"c  c #3f9a3d",
"v  c #26ad25",
"b  c #29b427",
"n  c #42851b",
"m  c #41933e",
"M  c #4f8241",
"N  c #4e8949",
"B  c #4a9d44",
"V  c #54824f",
"C  c #668d60",
"Z  c #778c71",
"A  c #709d69",
"S  c #74ad6c",
"D  c #8f5936",
"F  c #8e5d3d",
"G  c #8d6a36",
"H  c #98603c",
"J  c #907d37",
"K  c #a2643d",
"L  c #ac663b",
"P  c #a9683f",
"I  c #b06a3f",
"U  c #bd6f3e",
"Y  c #8f5f40",
"T  c #8c6448",
"R  c #976342",
"E  c #9e7455",
"W  c #a26d4a",
"Q  c #aa6a40",
"!  c #a6734d",
"~  c #ac714b",
"^  c #a47555",
"/  c #ac7653",
"(  c #b26e43",
")  c #b37146",
"_  c #b3734a",
"`  c #bb7244",
"'  c #bf7648",
"]  c #b57851",
"[  c #ba7b52",
"{  c #a07f64",
"}  c #c77644",
"|  c #c97744",
" . c #c87c4d",
".. c #c17c50",
"X. c #d47c45",
"o. c #d37e49",
"O. c #d97f47",
"+. c #82867b",
"@. c #848b7e",
"#. c #8a8375",
"$. c #89887b",
"%. c #86b47c",
"&. c #b9a047",
"*. c #cd804f",
"=. c #c28156",
"-. c #c5875f",
";. c #cd8455",
":. c #ca875b",
">. c #cd885c",
",. c #d1814e",
"<. c #dc864f",
"1. c #d38553",
"2. c #d58b5b",
"3. c #cf8f65",
"4. c #d79164",
"5. c #e7884d",
"6. c #e38950",
"7. c #f18e4f",
"8. c #f49559",
"9. c #f89456",
"0. c #e39868",
"q. c #f19a63",
"w. c #94988b",
"e. c #989d8e",
"r. c #999d91",
"t. c #92a889",
"y. c #9ca093",
"u. c #ba9d8a",
"i. c #a3ad97",
"p. c #abae9f",
"a. c #afb993",
"s. c #adb3a1",
"d. c #b0b3a5",
"f. c #b9bdaa",
"g. c #b4c3a9",
"h. c #bac5af",
"j. c #b9caad",
"k. c #bfc2b2",
"l. c #bae4aa",
"z. c #c39d86",
"x. c #c39f88",
"c. c #c6a189",
"v. c #c8a78a",
"b. c #cba890",
"n. c #d1a78c",
"m. c #d4a88e",
"M. c #d8ac8f",
"N. c #d7ad92",
"B. c #dbae92",
"V. c #ddb195",
"C. c #dbb79f",
"Z. c #d2bfa7",
"A. c #e1ac8c",
"S. c #e4b08f",
"D. c #ecb18d",
"F. c #e6b392",
"G. c #ecb695",
"H. c #e8bc9f",
"J. c #f1b590",
"K. c #f6ba94",
"L. c #fcbe97",
"P. c #fcbf99",
"I. c #c1c6b3",
"U. c #c6c9ba",
"Y. c #cfd4c0",
"T. c #d5d8c4",
"R. c #e4e6d1",
"E. c #eff1da",
"W. c None",
/* pixels */
"W...[ 6.L ;.o.U -.K ~ 8.L 3.W.",
"m.~ ` Q  .} X.1 9 { ` } ] ) z.",
"N.,.X.~ 7.X.T r a 2.X._ o._ c.",
"P.} K W 3 5 e #., 2 H 5.' 2.D.",
"F._ v.a i u O 7 ; 0 i y 2.( z.",
"H.~ Z.p.R.T.w.q p p.h.y.E ^ C.",
"K.~ a.i.l.E.j.f.d.U.@.> F 0.G.",
"m.! N Z j %.v %.g.U.V n &.L u.",
"B.J & l x l s m c g.# d L ;.A.",
"A.G % $ g S C h k b > M K X.3.",
"V...< # f t.j.S Z B Z q E _ b.",
"L.` ~ t u r.U.k.I.f.I.s.@.4.K.",
"A.]  .R q w @.e.+.+.t.w r ` u.",
"B. .| [ 5 O o + X X 8 > 1.) n.",
"L.I :.9.Q F * - 2 . = / D q.J.",
"W.:.` ( 8.U _ o.` 2.) ) <.=.W."
};
